<?xml version="1.0" standalone="no"?>
<svg
  width="600"
  height="600"
  viewBox="0 0 600 600"
  xmlns="http://www.w3.org/2000/svg"
>
  <g transform="translate(300,300)">
    <path d="M103.4,-162.3C130.3,-122.7,146,-87.6,170.6,-47.1C195.3,-6.6,228.9,39.3,228.2,84.2C227.5,129.1,192.5,173,148.8,178.9C105,184.9,52.5,152.9,6,144.7C-40.6,136.5,-81.1,152,-115.2,142.9C-149.3,133.8,-176.9,100.1,-182.8,63.7C-188.6,27.3,-172.8,-11.8,-165.7,-60.1C-158.7,-108.4,-160.5,-165.9,-134.3,-205.7C-108.2,-245.5,-54.1,-267.8,-7.9,-256.8C38.2,-245.9,76.4,-201.8,103.4,-162.3Z" fill="#0693e3" />
  </g>
</svg>
    